<svg width="17" height="22" viewBox="0 0 17 22" fill="none" xmlns="http://www.w3.org/2000/svg">
<path d="M2.8 12.5528L3.3721 13.373C3.64022 13.186 3.8 12.8797 3.8 12.5528H2.8ZM7.6 12.5528H6.6C6.6 12.8373 6.72113 13.1082 6.93309 13.2979L7.6 12.5528ZM5.2 15C4.64772 15 4.2 15.4477 4.2 16C4.2 16.5523 4.64772 17 5.2 17V15ZM5.25625 17C5.80853 17 6.25625 16.5523 6.25625 16C6.25625 15.4477 5.80853 15 5.25625 15V17ZM8.4 16C8.4 17.7673 6.96731 19.2 5.2 19.2V21.2C8.07188 21.2 10.4 18.8719 10.4 16H8.4ZM5.2 19.2C3.43269 19.2 2 17.7673 2 16H0C0 18.8719 2.32812 21.2 5.2 21.2V19.2ZM2 16C2 14.9134 2.54063 13.953 3.3721 13.373L2.2279 11.7326C0.883186 12.6706 0 14.2321 0 16H2ZM6.93309 13.2979C7.27794 13.6066 7.6596 14.0702 7.95026 14.5879C8.2462 15.115 8.4 15.6123 8.4 16H10.4C10.4 15.1438 10.0834 14.302 9.69418 13.6088C9.29965 12.9061 8.78131 12.2681 8.26691 11.8077L6.93309 13.2979ZM6.6 3.4V12.5528H8.6V3.4H6.6ZM3.8 12.5528V3.39843H1.8V12.5528H3.8ZM5.2 2C5.9732 2 6.6 2.6268 6.6 3.4H8.6C8.6 1.52223 7.07777 0 5.2 0V2ZM5.2 0C3.32308 0 1.8 1.51981 1.8 3.39843H3.8C3.8 2.62608 4.42595 2 5.2 2V0ZM5.2 17H5.25625V15H5.2V17ZM14.4 5.8C14.4 6.5732 13.7732 7.2 13 7.2V9.2C14.8778 9.2 16.4 7.67777 16.4 5.8H14.4ZM13 7.2C12.2268 7.2 11.6 6.5732 11.6 5.8H9.6C9.6 7.67777 11.1222 9.2 13 9.2V7.2ZM11.6 5.8C11.6 5.0268 12.2268 4.4 13 4.4V2.4C11.1222 2.4 9.6 3.92223 9.6 5.8H11.6ZM13 4.4C13.7732 4.4 14.4 5.0268 14.4 5.8H16.4C16.4 3.92223 14.8778 2.4 13 2.4V4.4Z" fill="white"/>
</svg>
